<?xml version="1.0" encoding="UTF-8" standalone="no"?>
<svg
   xmlns:dc="http://purl.org/dc/elements/1.1/"
   xmlns:cc="http://creativecommons.org/ns#"
   xmlns:rdf="http://www.w3.org/1999/02/22-rdf-syntax-ns#"
   xmlns:svg="http://www.w3.org/2000/svg"
   xmlns="http://www.w3.org/2000/svg"
   xmlns:sodipodi="http://sodipodi.sourceforge.net/DTD/sodipodi-0.dtd"
   xmlns:inkscape="http://www.inkscape.org/namespaces/inkscape"
   width="200mm"
   height="200mm"
   viewBox="0 0 200 200"
   version="1.1"
   id="svg8"
   inkscape:version="1.0 (4035a4fb49, 2020-05-01)"
   sodipodi:docname="java.svg">
  <defs
     id="defs2" />
  <sodipodi:namedview
     id="base"
     pagecolor="#ffffff"
     bordercolor="#666666"
     borderopacity="1.0"
     inkscape:pageopacity="0.0"
     inkscape:pageshadow="2"
     inkscape:zoom="0.49497475"
     inkscape:cx="212.80613"
     inkscape:cy="476.01785"
     inkscape:document-units="px"
     inkscape:current-layer="layer1"
     inkscape:document-rotation="0"
     showgrid="false"
     inkscape:window-width="1465"
     inkscape:window-height="1040"
     inkscape:window-x="208"
     inkscape:window-y="0"
     inkscape:window-maximized="0" />
  <metadata
     id="metadata5">
    <rdf:RDF>
      <cc:Work
         rdf:about="">
        <dc:format>image/svg+xml</dc:format>
        <dc:type
           rdf:resource="http://purl.org/dc/dcmitype/StillImage" />
        <dc:title></dc:title>
      </cc:Work>
    </rdf:RDF>
  </metadata>
  <g
     inkscape:label="Warstwa 1"
     inkscape:groupmode="layer"
     id="layer1">
    <path
       sodipodi:nodetypes="scsscas"
       d="m 105.45536,37.986604 c 13.61697,-9.005786 11.15029,-29.1041661 11.15029,-29.1041661 0,0 10.23208,14.1246261 7.77697,21.2599891 -7.66881,22.288197 -33.935063,31.291472 -34.258297,41.485893 -0.594334,18.744578 7.77151,35.52793 7.77151,35.52793 0,0 -23.654223,-18.777808 -23.245536,-31.938992 0.499938,-16.099771 15.715479,-27.25094 30.805063,-37.230654 z"
       style="fill:#ffffff;stroke:none;stroke-width:3.175;stroke-miterlimit:4;stroke-dasharray:none"
       id="rect863" />
    <path
       sodipodi:nodetypes="sscsscs"
       d="M 109.58052,101.69605 C 110.2389,98.257143 95.73043,85.510239 98.602145,71.351915 102.04629,54.371377 133.90204,46.772164 133.90204,46.772164 c 0,0 -18.31692,13.917533 -21.9161,24.722432 -2.83411,8.50813 8.94854,14.313434 8.8746,25.397357 -0.0584,8.745717 -13.95272,15.762147 -13.95272,15.762147 0,0 1.96572,-7.26535 2.6727,-10.95805 z"
       style="fill:#ffffff;stroke:none;stroke-width:3.175;stroke-miterlimit:4;stroke-dasharray:none"
       id="rect866" />
    <path
       sodipodi:nodetypes="scscss"
       d="m 46.63853,114.65863 c 1.94767,-8.46319 32.072343,-8.28536 32.072343,-8.28536 0,0 -18.93186,6.79238 -16.438983,8.17022 9.08063,5.01899 74.70374,-2.15665 74.70374,-2.15665 0,0 -16.93781,13.61744 -48.242149,14.03165 -26.875138,0.3556 -43.092618,-7.4247 -42.094951,-11.75986 z"
       style="fill:#ffffff;stroke:none;stroke-width:3.175;stroke-miterlimit:4;stroke-dasharray:none"
       id="rect871" />
    <path
       sodipodi:nodetypes="ccsccaac"
       d="m 70.359513,127.38866 2.594705,1.12052 c 0,0 -4.937666,2.47404 -2.839295,3.29868 13.623577,5.35396 53.678627,-1.77336 53.678627,-1.77336 l 7.9375,6.42118 c 0,0 -36.076301,9.29149 -53.857884,6.09212 -6.689332,-1.20358 -18.056892,-2.41501 -18.19148,-9.21043 -0.08068,-4.07355 10.677827,-5.94871 10.677827,-5.94871 z"
       style="fill:#ffffff;stroke:none;stroke-width:3.175;stroke-miterlimit:4;stroke-dasharray:none"
       id="rect874" />
    <path
       sodipodi:nodetypes="csaccssc"
       d="m 76.778477,145.93655 c 0,0 -1.58708,2.73834 -0.342223,3.33518 3.158816,1.51449 13.338037,1.8674 20.045797,1.78251 7.353479,-0.0931 21.918989,-2.5096 21.918989,-2.5096 l 10.90961,7.46109 c 0,0 -21.56182,7.68023 -34.172278,6.48113 -10.243469,-0.97403 -25.823858,0.76105 -29.370518,-9.50101 -1.932577,-5.5918 11.010623,-7.0493 11.010623,-7.0493 z"
       style="fill:#ffffff;stroke:none;stroke-width:3.175;stroke-miterlimit:4;stroke-dasharray:none"
       id="rect878" />
    <path
       sodipodi:nodetypes="caacac"
       d="m 139.24743,108.11053 c 0,0 15.46307,-7.51423 21.64884,-3.60814 5.87718,3.71123 8.44978,13.64165 5.74629,20.04521 -4.54233,10.75912 -30.86964,16.57071 -30.86964,16.57071 0,0 21.72281,-15.57227 19.00956,-25.94433 -1.43963,-5.5033 -15.53505,-7.06345 -15.53505,-7.06345 z"
       style="fill:#ffffff;stroke:none;stroke-width:3.175;stroke-miterlimit:4;stroke-dasharray:none"
       id="rect881" />
    <path
       sodipodi:nodetypes="csscssc"
       d="m 61.043159,158.75 c 0,0 -29.927777,8.42931 -1e-6,11.52827 19.869947,2.0575 40.148722,2.96081 59.928332,0.16532 38.35714,-5.42109 33.2428,-10.93763 33.2428,-10.93763 0,0 10.00901,8.16306 -13.62749,14.09063 -33.85286,8.48964 -119.903734,9.80756 -107.513879,-10.49986 2.1579,-3.53688 27.970238,-4.34673 27.970238,-4.34673 z"
       style="fill:#ffffff;stroke:none;stroke-width:3.175;stroke-miterlimit:4;stroke-dasharray:none"
       id="rect884" />
    <path
       sodipodi:nodetypes="cacsc"
       d="m 60.937449,181.20875 c 0,0 53.139291,3.55533 78.911271,-1.73888 8.98188,-1.84511 25.51339,-10.28461 25.51339,-10.28461 0,0 4.82,15.81003 -34.58521,18.14286 -60.450772,3.57875 -69.839451,-6.11937 -69.839451,-6.11937 z"
       style="fill:#ffffff;stroke:none;stroke-width:3.175;stroke-miterlimit:4;stroke-dasharray:none"
       id="rect887" />
  </g>
</svg>
