<?xml version="1.0" encoding="UTF-8" standalone="no"?>
<svg
   xmlns:dc="http://purl.org/dc/elements/1.1/"
   xmlns:cc="http://creativecommons.org/ns#"
   xmlns:rdf="http://www.w3.org/1999/02/22-rdf-syntax-ns#"
   xmlns:svg="http://www.w3.org/2000/svg"
   xmlns="http://www.w3.org/2000/svg"
   xmlns:sodipodi="http://sodipodi.sourceforge.net/DTD/sodipodi-0.dtd"
   xmlns:inkscape="http://www.inkscape.org/namespaces/inkscape"
   sodipodi:docname="location.svg"
   inkscape:version="1.0 (4035a4fb49, 2020-05-01)"
   id="svg8"
   version="1.1"
   viewBox="0 0 200 200"
   height="200mm"
   width="200mm">
  <defs
     id="defs2">
    <inkscape:path-effect
       message="Jeśli po konwersji przycięcia na ścieżki nie zostanie spłaszczony wynik, użyj reguły wypełniania w oknie dialogowym &lt;b&gt;wypełnienie i obrys&lt;/b&gt; ."
       hide_clip="false"
       flatten="false"
       inverse="true"
       lpeversion="1"
       is_visible="true"
       id="path-effect1260"
       effect="powerclip" />
    <inkscape:path-effect
       message="Jeśli po konwersji przycięcia na ścieżki nie zostanie spłaszczony wynik, użyj reguły wypełniania w oknie dialogowym &lt;b&gt;wypełnienie i obrys&lt;/b&gt; ."
       hide_clip="false"
       flatten="false"
       inverse="true"
       lpeversion="1"
       is_visible="true"
       id="path-effect1032"
       effect="powerclip" />
    <inkscape:path-effect
       message="Jeśli po konwersji przycięcia na ścieżki nie zostanie spłaszczony wynik, użyj reguły wypełniania w oknie dialogowym &lt;b&gt;wypełnienie i obrys&lt;/b&gt; ."
       hide_clip="false"
       flatten="false"
       inverse="true"
       lpeversion="1"
       is_visible="true"
       id="path-effect1028"
       effect="powerclip" />
    <inkscape:path-effect
       message="Jeśli po konwersji przycięcia na ścieżki nie zostanie spłaszczony wynik, użyj reguły wypełniania w oknie dialogowym &lt;b&gt;wypełnienie i obrys&lt;/b&gt; ."
       hide_clip="false"
       flatten="false"
       inverse="true"
       lpeversion="1"
       is_visible="true"
       id="path-effect1024"
       effect="powerclip" />
    <inkscape:path-effect
       message="Jeśli po konwersji przycięcia na ścieżki nie zostanie spłaszczony wynik, użyj reguły wypełniania w oknie dialogowym &lt;b&gt;wypełnienie i obrys&lt;/b&gt; ."
       hide_clip="false"
       flatten="false"
       inverse="true"
       lpeversion="1"
       is_visible="true"
       id="path-effect1020"
       effect="powerclip" />
    <inkscape:path-effect
       message="Jeśli po konwersji przycięcia na ścieżki nie zostanie spłaszczony wynik, użyj reguły wypełniania w oknie dialogowym &lt;b&gt;wypełnienie i obrys&lt;/b&gt; ."
       hide_clip="false"
       flatten="false"
       inverse="true"
       lpeversion="1"
       is_visible="true"
       id="path-effect1016"
       effect="powerclip" />
    <inkscape:path-effect
       message="Jeśli po konwersji przycięcia na ścieżki nie zostanie spłaszczony wynik, użyj reguły wypełniania w oknie dialogowym &lt;b&gt;wypełnienie i obrys&lt;/b&gt; ."
       hide_clip="false"
       flatten="false"
       inverse="true"
       lpeversion="1"
       is_visible="true"
       id="path-effect1012"
       effect="powerclip" />
    <clipPath
       id="clipPath988"
       clipPathUnits="userSpaceOnUse">
      <path
         sodipodi:nodetypes="ssssssssccs"
         d="M 163.03441,72.430047 C 157.43511,86.371739 140.92556,105.81832 123.70597,118.0772 98.490632,136.02838 70.223583,144.07205 59.868376,142.18739 41.658172,138.87312 41.624631,117.78714 42.22859,110.11505 43.868837,89.278962 56.053328,74.033665 75.370009,68.688275 82.323127,66.76418 97.01186,67.605227 113.87183,65.159588 c 25.81538,-3.744672 52.54849,-24.693136 57.58534,-38.484532 1.41381,-3.871141 22.82988,76.359034 0.16678,105.682914 -24.97787,32.31896 -103.05178,19.36957 -103.05178,19.36957 0,0 29.20905,-4.22265 59.97256,-24.25657 19.85738,-12.93159 34.68949,-55.53843 34.48968,-55.040923 z"
         style="display:block;fill:#800000;fill-opacity:1;stroke:none;stroke-width:1.154;stroke-miterlimit:4;stroke-dasharray:none;stroke-opacity:1"
         id="path990" />
    </clipPath>
    <clipPath
       id="clipPath992"
       clipPathUnits="userSpaceOnUse">
      <path
         sodipodi:nodetypes="ssssssssccs"
         d="M 163.03441,72.430047 C 157.43511,86.371739 140.92556,105.81832 123.70597,118.0772 98.490632,136.02838 70.223583,144.07205 59.868376,142.18739 41.658172,138.87312 41.624631,117.78714 42.22859,110.11505 43.868837,89.278962 56.053328,74.033665 75.370009,68.688275 82.323127,66.76418 97.01186,67.605227 113.87183,65.159588 c 25.81538,-3.744672 52.54849,-24.693136 57.58534,-38.484532 1.41381,-3.871141 22.82988,76.359034 0.16678,105.682914 -24.97787,32.31896 -103.05178,19.36957 -103.05178,19.36957 0,0 29.20905,-4.22265 59.97256,-24.25657 19.85738,-12.93159 34.68949,-55.53843 34.48968,-55.040923 z"
         style="display:none;fill:#800000;fill-opacity:1;stroke:none;stroke-width:1.154;stroke-miterlimit:4;stroke-dasharray:none;stroke-opacity:1"
         id="path994" />
    </clipPath>
    <clipPath
       id="clipPath996"
       clipPathUnits="userSpaceOnUse">
      <path
         sodipodi:nodetypes="ssssssssccs"
         d="M 163.03441,72.430047 C 157.43511,86.371739 140.92556,105.81832 123.70597,118.0772 98.490632,136.02838 70.223583,144.07205 59.868376,142.18739 41.658172,138.87312 41.624631,117.78714 42.22859,110.11505 43.868837,89.278962 56.053328,74.033665 75.370009,68.688275 82.323127,66.76418 97.01186,67.605227 113.87183,65.159588 c 25.81538,-3.744672 52.54849,-24.693136 57.58534,-38.484532 1.41381,-3.871141 22.82988,76.359034 0.16678,105.682914 -24.97787,32.31896 -103.05178,19.36957 -103.05178,19.36957 0,0 29.20905,-4.22265 59.97256,-24.25657 19.85738,-12.93159 34.68949,-55.53843 34.48968,-55.040923 z"
         style="display:block;fill:#800000;fill-opacity:1;stroke:none;stroke-width:1.154;stroke-miterlimit:4;stroke-dasharray:none;stroke-opacity:1"
         id="path998" />
    </clipPath>
    <clipPath
       id="clipPath1000"
       clipPathUnits="userSpaceOnUse">
      <path
         sodipodi:nodetypes="ssssssssccs"
         d="M 163.03441,72.430047 C 157.43511,86.371739 140.92556,105.81832 123.70597,118.0772 98.490632,136.02838 70.223583,144.07205 59.868376,142.18739 41.658172,138.87312 41.624631,117.78714 42.22859,110.11505 43.868837,89.278962 56.053328,74.033665 75.370009,68.688275 82.323127,66.76418 97.01186,67.605227 113.87183,65.159588 c 25.81538,-3.744672 52.54849,-24.693136 57.58534,-38.484532 1.41381,-3.871141 22.82988,76.359034 0.16678,105.682914 -24.97787,32.31896 -103.05178,19.36957 -103.05178,19.36957 0,0 29.20905,-4.22265 59.97256,-24.25657 19.85738,-12.93159 34.68949,-55.53843 34.48968,-55.040923 z"
         style="display:none;fill:#800000;fill-opacity:1;stroke:none;stroke-width:1.154;stroke-miterlimit:4;stroke-dasharray:none;stroke-opacity:1"
         id="path1002" />
    </clipPath>
    <clipPath
       id="clipPath1004"
       clipPathUnits="userSpaceOnUse">
      <path
         sodipodi:nodetypes="ssssssssccs"
         d="M 163.03441,72.430047 C 157.43511,86.371739 140.92556,105.81832 123.70597,118.0772 98.490632,136.02838 70.223583,144.07205 59.868376,142.18739 41.658172,138.87312 41.624631,117.78714 42.22859,110.11505 43.868837,89.278962 56.053328,74.033665 75.370009,68.688275 82.323127,66.76418 97.01186,67.605227 113.87183,65.159588 c 25.81538,-3.744672 52.54849,-24.693136 57.58534,-38.484532 1.41381,-3.871141 22.82988,76.359034 0.16678,105.682914 -24.97787,32.31896 -103.05178,19.36957 -103.05178,19.36957 0,0 29.20905,-4.22265 59.97256,-24.25657 19.85738,-12.93159 34.68949,-55.53843 34.48968,-55.040923 z"
         style="display:block;fill:#800000;fill-opacity:1;stroke:none;stroke-width:1.154;stroke-miterlimit:4;stroke-dasharray:none;stroke-opacity:1"
         id="path1006" />
    </clipPath>
    <clipPath
       id="clipPath1008"
       clipPathUnits="userSpaceOnUse">
      <path
         sodipodi:nodetypes="ssssssssccs"
         d="M 163.03441,72.430047 C 157.43511,86.371739 140.92556,105.81832 123.70597,118.0772 98.490632,136.02838 70.223583,144.07205 59.868376,142.18739 41.658172,138.87312 41.624631,117.78714 42.22859,110.11505 43.868837,89.278962 56.053328,74.033665 75.370009,68.688275 82.323127,66.76418 97.01186,67.605227 113.87183,65.159588 c 25.81538,-3.744672 52.54849,-24.693136 57.58534,-38.484532 1.41381,-3.871141 22.82988,76.359034 0.16678,105.682914 -24.97787,32.31896 -103.05178,19.36957 -103.05178,19.36957 0,0 29.20905,-4.22265 59.97256,-24.25657 19.85738,-12.93159 34.68949,-55.53843 34.48968,-55.040923 z"
         style="display:block;fill:#800000;fill-opacity:1;stroke:none;stroke-width:1.154;stroke-miterlimit:4;stroke-dasharray:none;stroke-opacity:1"
         id="path1010" />
    </clipPath>
    <clipPath
       clipPathUnits="userSpaceOnUse"
       id="clipath_lpe_path-effect1260">
      <path
         id="path1262"
         style="display:block;fill:#800000;fill-opacity:1;stroke:none;stroke-width:1.154;stroke-miterlimit:4;stroke-dasharray:none;stroke-opacity:1"
         d="M 163.03441,72.430047 C 157.43511,86.371739 140.92556,105.81832 123.70597,118.0772 98.490632,136.02838 70.223583,144.07205 59.868376,142.18739 41.658172,138.87312 41.624631,117.78714 42.22859,110.11505 43.868837,89.278962 56.053328,74.033665 75.370009,68.688275 82.323127,66.76418 97.01186,67.605227 113.87183,65.159588 c 25.81538,-3.744672 52.54849,-24.693136 57.58534,-38.484532 1.41381,-3.871141 22.82988,76.359034 0.16678,105.682914 -24.97787,32.31896 -103.05178,19.36957 -103.05178,19.36957 0,0 29.20905,-4.22265 59.97256,-24.25657 19.85738,-12.93159 34.68949,-55.53843 34.48968,-55.040923 z"
         sodipodi:nodetypes="ssssssssccs" />
    </clipPath>
  </defs>
  <sodipodi:namedview
     inkscape:window-maximized="0"
     inkscape:window-y="0"
     inkscape:window-x="208"
     inkscape:window-height="1040"
     inkscape:window-width="1465"
     showgrid="false"
     inkscape:document-rotation="0"
     inkscape:current-layer="layer1"
     inkscape:document-units="px"
     inkscape:cy="480.40273"
     inkscape:cx="416.00697"
     inkscape:zoom="0.7"
     inkscape:pageshadow="2"
     inkscape:pageopacity="0.0"
     borderopacity="1.0"
     bordercolor="#f8f8f8"
     pagecolor="#f8f8f8"
     id="base" />
  <metadata
     id="metadata5">
    <rdf:RDF>
      <cc:Work
         rdf:about="">
        <dc:format>image/svg+xml</dc:format>
        <dc:type
           rdf:resource="http://purl.org/dc/dcmitype/StillImage" />
        <dc:title></dc:title>
      </cc:Work>
    </rdf:RDF>
  </metadata>
  <g
     id="layer1"
     inkscape:groupmode="layer"
     inkscape:label="Warstwa 1">
    <path
       transform="scale(0.26458333)"
       d="M 381.42773 71.427734 C 274.91567 71.427734 188.57227 157.77309 188.57227 264.28516 C 188.57228 370.79721 381.42773 695.71484 381.42773 695.71484 C 381.42773 695.71484 574.28516 370.79722 574.28516 264.28516 C 574.28516 157.77309 487.93981 71.427727 381.42773 71.427734 z M 381.19336 140 A 124.28572 124.28572 0 0 1 381.42773 140 A 124.28572 124.28572 0 0 1 505.71484 264.28516 A 124.28572 124.28572 0 0 1 381.42773 388.57227 A 124.28572 124.28572 0 0 1 257.14258 264.28516 A 124.28572 124.28572 0 0 1 381.19336 140 z "
       style="fill:#000000;fill-opacity:1;stroke:none;stroke-width:25.569"
       id="path865" />
  </g>
  <g
     style="display:inline"
     inkscape:label="Warstwa 2"
     id="layer2"
     inkscape:groupmode="layer" />
</svg>
