<?xml version="1.0" encoding="UTF-8" standalone="no"?>
<svg
   xmlns:dc="http://purl.org/dc/elements/1.1/"
   xmlns:cc="http://creativecommons.org/ns#"
   xmlns:rdf="http://www.w3.org/1999/02/22-rdf-syntax-ns#"
   xmlns:svg="http://www.w3.org/2000/svg"
   xmlns="http://www.w3.org/2000/svg"
   xmlns:sodipodi="http://sodipodi.sourceforge.net/DTD/sodipodi-0.dtd"
   xmlns:inkscape="http://www.inkscape.org/namespaces/inkscape"
   width="200mm"
   height="200mm"
   viewBox="0 0 200 200"
   version="1.1"
   id="svg8"
   inkscape:version="1.0 (4035a4fb49, 2020-05-01)"
   sodipodi:docname="spring.svg">
  <defs
     id="defs2">
    <inkscape:path-effect
       message="Jeśli po konwersji przycięcia na ścieżki nie zostanie spłaszczony wynik, użyj reguły wypełniania w oknie dialogowym &lt;b&gt;wypełnienie i obrys&lt;/b&gt; ."
       hide_clip="false"
       flatten="false"
       inverse="true"
       lpeversion="1"
       is_visible="true"
       id="path-effect937"
       effect="powerclip" />
    <clipPath
       id="clipPath933"
       clipPathUnits="userSpaceOnUse">
      <path
         clip-path="none"
         id="path935"
         style="display:none;fill:#ffd5d5;stroke:none;stroke-width:2.73756;stroke-miterlimit:4;stroke-dasharray:none;stroke-opacity:1"
         d="m 181.33574,101.76484 c 0,49.12694 -30.20618,64.06902 -79.3305,63.5616 -13.346414,-0.13787 -29.865243,0.74394 -45.32091,-0.45327 11.19088,-3.88474 42.165844,-8.87332 65.95799,-28.30821 24.55185,-20.05546 41.68029,-54.523455 36.33697,-55.237426 -3.38578,8.544907 -25.51902,40.256216 -54.39361,55.126116 -33.387036,17.19372 -72.840197,19.32322 -76.29828,1.12531 -6.797767,-35.77278 18.443697,-66.768835 67.570641,-66.768835 48.385409,0 63.549689,-27.530126 63.549689,-27.530126 l 9.93284,-16.89099 c 0.72228,-1.228252 11.99517,59.106128 11.99517,75.375831 z"
         sodipodi:nodetypes="sscscssccss" />
      <path
         d="M -1.5686646,7.812637 H 186.33574 V 195.71704 H -1.5686646 Z M 181.33574,101.76484 c 0,-16.269703 -11.27289,-76.604083 -11.99517,-75.375831 l -9.93284,16.89099 c 0,0 -15.16428,27.530126 -63.549689,27.530126 -49.126944,0 -74.368408,30.996055 -67.570641,66.768835 3.458083,18.19791 42.911244,16.06841 76.29828,-1.12531 28.87459,-14.8699 51.00783,-46.581209 54.39361,-55.126116 5.34332,0.713971 -11.78512,35.181966 -36.33697,55.237426 -23.792146,19.43489 -54.76711,24.42347 -65.95799,28.30821 15.455667,1.19721 31.974496,0.3154 45.32091,0.45327 49.12432,0.50742 79.3305,-14.43466 79.3305,-63.5616 z"
         class="powerclip"
         style="fill:#ffd5d5;stroke:none;stroke-width:2.73756;stroke-miterlimit:4;stroke-dasharray:none;stroke-opacity:1"
         id="lpe_path-effect937" />
    </clipPath>
  </defs>
  <sodipodi:namedview
     id="base"
     pagecolor="#ffffff"
     bordercolor="#666666"
     borderopacity="1.0"
     inkscape:pageopacity="0.0"
     inkscape:pageshadow="2"
     inkscape:zoom="0.7"
     inkscape:cx="443.92151"
     inkscape:cy="470.48821"
     inkscape:document-units="px"
     inkscape:current-layer="layer1"
     inkscape:document-rotation="0"
     showgrid="false"
     inkscape:window-width="1465"
     inkscape:window-height="1040"
     inkscape:window-x="208"
     inkscape:window-y="0"
     inkscape:window-maximized="0" />
  <metadata
     id="metadata5">
    <rdf:RDF>
      <cc:Work
         rdf:about="">
        <dc:format>image/svg+xml</dc:format>
        <dc:type
           rdf:resource="http://purl.org/dc/dcmitype/StillImage" />
        <dc:title></dc:title>
      </cc:Work>
    </rdf:RDF>
  </metadata>
  <g
     inkscape:label="Warstwa 1"
     inkscape:groupmode="layer"
     id="layer1">
    <path
       transform="translate(6.4255955,-3.0238094)"
       inkscape:path-effect="#path-effect937"
       inkscape:original-d="m 181.33574,101.76484 c 0,49.12694 -39.82526,88.9522 -88.952203,88.9522 -19.072674,0 -36.743357,-6.00264 -51.225927,-16.2218 -0.591551,-0.41741 3.390848,-3.42255 4.39647,-6.10706 1.545176,-4.12487 -1.44746,-11.04464 -8.431144,-10.42638 -8.537873,0.75584 -3.114853,10.94438 -4.386742,9.79405 C 14.738957,151.47855 3.431336,127.94221 3.4313354,101.76484 3.4313343,52.637895 43.256592,12.812638 92.383537,12.812637 c 48.385413,0 67.024193,30.467362 67.024193,30.467362 l 9.93284,-16.89099 c 0.72228,-1.228252 11.99517,59.106127 11.99517,75.375831 z"
       clip-path="url(#clipPath933)"
       sodipodi:nodetypes="sssssssccss"
       d="m 181.33574,101.76484 c 0,49.12694 -39.82526,88.9522 -88.952203,88.9522 -19.072674,0 -36.743357,-6.00264 -51.225927,-16.2218 -0.591551,-0.41741 3.390848,-3.42255 4.39647,-6.10706 1.545176,-4.12487 -1.44746,-11.04464 -8.431144,-10.42638 -8.537873,0.75584 -3.114853,10.94438 -4.386742,9.79405 C 14.738957,151.47855 3.431336,127.94221 3.4313354,101.76484 3.4313343,52.637895 43.256592,12.812638 92.383537,12.812637 c 48.385413,0 67.024193,30.467362 67.024193,30.467362 l 9.93284,-16.89099 c 0.72228,-1.228252 11.99517,59.106127 11.99517,75.375831 z"
       style="fill:#ffffff;fill-opacity:1;stroke:#ffffff;stroke-width:3.175;stroke-miterlimit:4;stroke-dasharray:none;stroke-opacity:1"
       id="path904" />
  </g>
</svg>
